<?xml version="1.0" encoding="utf-8"?>
<!-- Generator: Adobe Illustrator 21.1.0, SVG Export Plug-In . SVG Version: 6.00 Build 0)  -->
<svg version="1.1" id="Layer_1" xmlns="http://www.w3.org/2000/svg" xmlns:xlink="http://www.w3.org/1999/xlink" x="0px" y="0px"
	 viewBox="0 0 58 36" style="enable-background:new 0 0 58 36;" xml:space="preserve">
<style type="text/css">
	.st0{fill:#E85321;}
</style>
<g>
	<path class="st0" d="M23.5,6.3c0,0.1-0.1,0.2-0.2,0.3c-0.2,0.5-0.4,0.9-0.6,1.5c-0.2,0.6-0.3,1.3-0.4,1.9c0,0.5-0.1,0.9-0.1,1.4
		c0,1,0.2,1.9,0.5,2.8c0.3,1,0.8,1.9,1.5,2.7c0.5,0.5,1,1,1.7,1.3c0.5,0.3,1.1,0.4,1.7,0.5c0.8,0.1,1.6-0.1,2.3-0.5
		c0.5-0.2,0.9-0.5,1.3-0.9c0.6-0.5,1-1.2,1.4-1.9c0.4-0.8,0.7-1.7,0.9-2.7c0.1-0.4,0.1-0.8,0.1-1.1c0-0.3,0-0.6,0-0.8
		c0-0.5-0.1-1-0.2-1.5c-0.1-0.6-0.3-1.3-0.6-1.9c-0.1-0.3-0.3-0.6-0.5-0.9c0,0,0-0.1,0-0.1c0.2,0,0.3,0.1,0.5,0.2
		c0.6,0.3,1.2,0.7,1.7,1.1C35.2,8,35.6,8.5,36,9c0.5,0.7,0.8,1.5,1,2.3c0.1,0.3,0.1,0.7,0.1,1c0,0.7-0.2,1.4-0.5,2.1
		c-0.3,0.6-0.7,1.2-1.2,1.7c-0.8,0.9-1.8,1.5-2.9,2c-0.9,0.4-1.8,0.6-2.7,0.8C29.4,18.9,29,19,28.6,19c-0.3,0-0.6,0-0.9,0
		c-0.6,0-1.3-0.1-1.9-0.2c-0.9-0.2-1.7-0.4-2.5-0.8c-0.9-0.4-1.6-0.9-2.3-1.6c-0.5-0.5-0.9-1-1.2-1.6c-0.3-0.6-0.5-1.2-0.7-1.8
		c0-0.3-0.1-0.6-0.1-0.8c0-0.7,0.1-1.5,0.4-2.2c0.3-0.6,0.6-1.2,1.1-1.7c0.6-0.7,1.4-1.3,2.2-1.7C22.9,6.5,23.1,6.4,23.5,6.3
		C23.4,6.3,23.4,6.3,23.5,6.3z"/>
	<path d="M23.2,8.5c0-0.2,0.1-0.3,0.1-0.5c0.3-0.8,0.6-1.5,1.1-2.1c0.1-0.1,0.1-0.1,0.2-0.1c0.5-0.1,1-0.3,1.5-0.3
		c0.4-0.1,0.8-0.1,1.2-0.1c0.2,0,0.4,0,0.7,0c0.8,0,1.7,0.1,2.5,0.3c0.3,0.1,0.6,0.2,0.9,0.2c0.1,0,0.1,0,0.1,0.1c0,0,0,0.1,0,0.1
		c0,3.3,0,6.7,0,10c0,0.1,0,0.2-0.1,0.3c-0.3,0.3-0.6,0.6-0.9,0.8c-0.4,0.3-0.7,0.5-1.2,0.6c-0.3,0.1-0.7,0.2-1,0.2
		c-0.1,0-0.2,0-0.3,0c-0.1,0-0.1,0-0.1-0.1c0,0,0-0.1,0-0.1c0-3.3,0-6.7,0-10c0-0.2,0-0.2-0.2-0.2c-0.1,0-0.3,0-0.4,0
		C25.8,7.7,24.5,7.9,23.2,8.5C23.2,8.5,23.2,8.5,23.2,8.5z"/>
	<path d="M6.9,30.4c-0.4,0.2-0.8,0.3-1.2,0.3c-0.7,0-1.5,0-2.2,0c-0.7,0-1.3-0.2-1.8-0.5c-0.6-0.4-1.1-1-1.4-1.7
		C0.1,28.1,0,27.7,0,27.3c0-0.5,0.1-1.1,0.3-1.6c0.3-0.7,0.7-1.1,1.4-1.5C2,24,2.5,23.9,3,23.8c0.2,0,0.5,0,0.7,0c0.5,0,1.1,0,1.6,0
		c0.4,0,0.8,0,1.2,0.1c0.8,0.2,1.4,0.6,1.9,1.3c0.3,0.4,0.5,0.9,0.5,1.4c0.1,0.4,0.1,0.8,0,1.3c-0.1,0.6-0.4,1.2-0.8,1.7
		c0,0-0.1,0.1-0.1,0.1c-0.1,0-0.2-0.1-0.3-0.2c-0.2-0.2-0.4-0.3-0.5-0.5c0,0-0.1-0.1-0.1-0.2c0.2-0.2,0.3-0.4,0.4-0.7
		c0.3-0.8,0.1-1.8-0.5-2.4c-0.4-0.4-0.9-0.6-1.4-0.6c-0.6,0-1.3,0-1.9,0c-0.3,0-0.7,0-1,0.1c-0.8,0.3-1.4,1-1.4,1.9
		c0,0.6,0.1,1.1,0.4,1.5c0.3,0.4,0.6,0.6,1.1,0.7c0.3,0.1,0.6,0.1,0.9,0.1c0.5,0,1,0,1.6,0c0.2,0,0.3,0,0.5,0c0.1,0,0.1,0,0.2,0.1
		C6.2,29.8,6.5,30,6.9,30.4C6.9,30.3,6.9,30.4,6.9,30.4z"/>
	<path d="M17.1,30.7c0,0,0-0.1,0-0.1c1.2-2,2.4-4,3.6-6.1c0.2-0.3,0.4-0.5,0.7-0.6c0.2-0.1,0.4-0.1,0.6,0c0.3,0.1,0.5,0.4,0.6,0.6
		c0.4,0.6,0.7,1.2,1.1,1.9c0.7,1.1,1.3,2.2,2,3.4c0.2,0.3,0.3,0.6,0.5,0.9c0,0,0,0,0,0c0,0-0.1,0-0.1,0c-0.5,0-0.9,0-1.4,0
		c-0.1,0-0.1,0-0.1-0.1c-0.3-0.6-0.7-1.1-1-1.7c-0.1-0.1-0.1-0.2-0.3-0.2c-1,0-1.9,0-2.9,0c-0.1,0-0.1,0-0.2,0
		c0.1-0.2,0.2-0.4,0.3-0.6c0.1-0.2,0.2-0.3,0.3-0.5c0-0.1,0.1-0.1,0.2-0.1c0.5,0,1,0,1.5,0c0,0,0.1,0,0.2,0
		c-0.4-0.7-0.8-1.3-1.2-1.9c-0.1,0.1-0.1,0.2-0.2,0.3c-0.7,1.2-1.5,2.4-2.2,3.6c-0.2,0.4-0.4,0.7-0.7,1.1c0,0.1-0.1,0.1-0.1,0.1
		C18.1,30.7,17.6,30.7,17.1,30.7C17.1,30.7,17.1,30.7,17.1,30.7z"/>
	<path d="M17.2,25.9c0,0.6,0,1.3,0,1.9c0,0.5-0.1,1-0.3,1.5c-0.2,0.4-0.5,0.7-0.9,1c-0.4,0.2-0.8,0.3-1.3,0.4
		c-0.6,0.1-1.2,0.1-1.8,0.1c-0.5,0-0.9-0.1-1.4-0.2c-0.5-0.2-0.9-0.4-1.3-0.8C10,29.4,9.9,29.2,9.8,29c-0.2-0.4-0.2-0.9-0.2-1.4
		c0-1.2,0-2.4,0-3.6c0-0.2,0-0.2,0.2-0.2c0.3,0,0.6,0,0.9,0c0.2,0,0.1,0,0.1,0.1c0,1.3,0,2.5,0,3.8c0,0.3,0.1,0.7,0.3,1
		c0.2,0.3,0.5,0.5,0.8,0.6c0.4,0.1,0.7,0.1,1.1,0.2c0.2,0,0.5,0,0.7,0c0.4,0,0.8,0,1.2-0.2c0.6-0.2,0.9-0.6,1.1-1.2
		c0-0.2,0.1-0.3,0.1-0.5c0-1.2,0-2.4,0-3.7c0-0.2,0-0.2,0.2-0.2c0.3,0,0.6,0,0.9,0c0.2,0,0.1,0,0.1,0.1
		C17.2,24.6,17.2,25.3,17.2,25.9z"/>
	<path d="M43.9,23.8c0.4,0,0.9,0,1.3,0c0.2,0,0.4,0.1,0.5,0.2c0.8,1,1.5,2,2.3,3c0,0,0.1,0.1,0.1,0.1c0.1,0,0.1-0.1,0.1-0.1
		c0.8-1.1,1.5-2.1,2.3-3.2c0-0.1,0.1-0.1,0.2-0.1c0.5,0,0.9,0,1.4,0c0,0,0,0,0.1,0c-0.2,0.2-0.3,0.4-0.4,0.6c-1,1.3-1.9,2.6-2.9,3.9
		c-0.1,0.1-0.1,0.1-0.1,0.2c0,0.7,0,1.3,0,2c0,0.1,0,0.1-0.1,0.1c-0.3,0-0.6,0-1,0c-0.1,0-0.1,0-0.1-0.1c0-0.7,0-1.3,0-2
		c0-0.1,0-0.2-0.1-0.3c-1-1.3-1.9-2.5-2.9-3.8C44.2,24.3,44.1,24.1,43.9,23.8z"/>
	<path d="M39.9,23.8c1,0,2.1,0,3.1,0c0,0,0.1,0,0.1,0c0.1,0,0.1,0,0.1,0.1c0,0.3,0,0.7,0,1c0,0.1,0,0.1-0.1,0.1c-0.8,0-1.6,0-2.4,0
		c-0.2,0-0.2,0-0.2,0.2c0,1.8,0,3.5,0,5.3c0,0.2,0,0.2-0.2,0.2c-0.3,0-0.6,0-0.9,0c-0.2,0-0.1,0-0.1-0.1c0-1.8,0-3.5,0-5.3
		c0-0.2,0-0.2-0.2-0.2c-0.8,0-1.6,0-2.3,0c0,0-0.1,0-0.1,0c-0.1,0-0.1,0-0.1-0.1c0-0.3,0-0.5,0-0.8c0-0.1,0-0.2,0-0.2
		c0-0.1,0-0.1,0.1-0.1c0,0,0.1,0,0.1,0C37.9,23.8,38.9,23.8,39.9,23.8z"/>
	<path d="M27.2,27.2c0-1.1,0-2.2,0-3.2c0,0,0-0.1,0-0.1c0-0.1,0-0.1,0.1-0.1c0.3,0,0.5,0,0.8,0c0.1,0,0.2,0,0.3,0
		c0.1,0.1,0,0.2,0,0.3c0,1.7,0,3.5,0,5.2c0,0.2,0,0.2,0.2,0.2c1.5,0,2.9,0,4.4,0c0.2,0,0.2,0,0.2,0.2c0,0.3,0,0.6,0,0.9
		c0,0.1,0,0.1-0.1,0.1c-0.7,0-1.4,0-2.1,0c-1.2,0-2.4,0-3.5,0c0,0-0.1,0-0.1,0c-0.1,0-0.1,0-0.1-0.1C27.2,29.5,27.2,28.3,27.2,27.2z
		"/>
	<path class="st0" d="M58,28.3c0,0.7,0,1.5,0,2.2c0,0,0,0.1,0,0.1c0,0.1,0,0.1-0.1,0.1c0,0,0,0,0,0c-0.3,0-0.6,0-1,0
		c-0.1,0-0.1,0-0.1-0.1c0,0,0-0.1,0-0.1c0-1.4,0-2.7,0-4.1c0-0.2,0-0.4-0.1-0.6c-0.1-0.5-0.4-0.7-0.9-0.8c-0.3,0-0.6,0-1,0
		c-0.1,0-0.1,0-0.1-0.1c0-0.3,0-0.7,0-1c0-0.1,0-0.1,0.1-0.1c0.4,0,0.7,0,1.1,0c0.4,0,0.8,0.1,1.2,0.4c0.4,0.3,0.7,0.8,0.8,1.3
		C58,25.8,58,26,58,26.2C58,26.9,58,27.6,58,28.3C58,28.3,58,28.3,58,28.3z"/>
	<path d="M35.5,27.3c0,1.1,0,2.2,0,3.2c0,0,0,0.1,0,0.1c0,0.1,0,0.1-0.1,0.1c-0.2,0-0.5,0-0.7,0c-0.1,0-0.2,0-0.4,0
		c-0.1,0-0.1,0-0.1-0.1c0,0,0-0.1,0-0.1c0-2.2,0-4.3,0-6.5c0,0,0-0.1,0-0.1c0-0.1,0-0.1,0.1-0.1c0.3,0,0.6,0,1,0
		c0.1,0,0.1,0,0.1,0.1c0,0.9,0,1.9,0,2.8C35.5,26.9,35.5,27.1,35.5,27.3z"/>
	<path class="st0" d="M6.9,30.4c-0.2-0.2-0.4-0.3-0.5-0.5c-0.1-0.1-0.3-0.3-0.5-0.4c0,0-0.1,0-0.1,0c-0.2-0.1-0.2-0.2-0.4-0.3
		c-0.3-0.3-0.6-0.6-0.9-0.8c0,0-0.1-0.1-0.1-0.1c0-0.1,0.1-0.1,0.1-0.1c0.5,0,1.1,0,1.6,0c0.1,0,0.2,0,0.2,0.1
		c0.2,0.2,0.4,0.4,0.6,0.6c0,0,0,0,0,0.1c0.1,0.1,0.2,0.2,0.4,0.3c0.2,0.2,0.4,0.3,0.5,0.5c0.4,0.3,0.7,0.7,1.1,1c0,0-0.1,0-0.1,0
		c-0.5,0-1.1,0-1.6,0c-0.1,0-0.1,0-0.2-0.1C7,30.5,7,30.5,6.9,30.4z"/>
	<path class="st0" d="M33.6,18.4c0.9-0.5,1.7-1.1,2.4-1.8c0.3,0.4,0.5,0.8,0.4,1.3c-0.1,0.6-0.6,1-1.1,1.1
		C34.6,19,34.1,18.8,33.6,18.4z"/>
</g>
</svg>
