<?xml version="1.0" encoding="utf-8"?>
<!-- Generator: Adobe Illustrator 15.0.2, SVG Export Plug-In  -->
<!DOCTYPE svg PUBLIC "-//W3C//DTD SVG 1.1//EN" "http://www.w3.org/Graphics/SVG/1.1/DTD/svg11.dtd" [
	<!ENTITY ns_flows "http://ns.adobe.com/Flows/1.0/">
]>
<svg version="1.1"
	 xmlns="http://www.w3.org/2000/svg" xmlns:xlink="http://www.w3.org/1999/xlink" xmlns:a="http://ns.adobe.com/AdobeSVGViewerExtensions/3.0/"
	 x="0px" y="0px" width="116px" height="56px" viewBox="0 0 116 56" overflow="visible" enable-background="new 0 0 116 56"
	 xml:space="preserve">
<defs>
</defs>
<polygon fill="#003468" points="0,0 0,27 116,27 116,0 "/>
<path fill="#FF7500" d="M0,56h102.33c7.605,0,13.67-6.225,13.67-13.521V29H0V56L0,56z"/>
<path fill="#003468" d="M11.319,50.062h-0.193c-2.303,0-4.288-1.602-4.288-4.269c0-1.644,2.475-1.644,2.475,0
	c0,1.151,0.747,1.815,1.813,1.815h0.193c1.066,0,1.878-0.557,1.878-1.625c0-2.666-6.209-2.922-6.209-6.826c0-0.277,0-0.172,0-0.446
	c0-2.282,2.283-3.649,4.139-3.649h0.193c2.197,0,4.161,1.367,4.161,3.414c0,1.578-2.455,1.621-2.455,0.062
	c0-0.555-0.682-1.023-1.707-1.023h-0.193c-0.938,0-1.665,0.512-1.665,1.324c0,0.276,0,0.062,0,0.318c0,1.686,6.21,2.434,6.21,6.826
	C15.671,48.422,13.773,50.062,11.319,50.062L11.319,50.062z"/>
<path fill="#003468" d="M22.05,50.062h-0.191c-2.347,0-4.267-1.813-4.267-4.183v-6.657c0-2.367,1.92-4.16,4.267-4.16h0.191
	c2.155,0,3.948,1.473,4.226,3.563c0.021,0.063,0.021,0.126,0.021,0.214c0,0.768-0.641,1.195-1.259,1.195
	c-0.554,0-1.088-0.344-1.194-1.068c-0.128-0.876-0.875-1.451-1.793-1.451H21.86c-1.003,0-1.813,0.728-1.813,1.707v6.657
	c0,1.003,0.831,1.729,1.813,1.729h0.191c0.918,0,1.665-0.58,1.793-1.453c0.106-0.725,0.661-1.066,1.194-1.066
	c0.641,0,1.259,0.428,1.259,1.195c0,0.086,0,0.148,0,0.232C25.977,48.568,24.205,50.062,22.05,50.062L22.05,50.062z"/>
<path fill="#003468" d="M32.527,50.062h-0.192c-2.347,0-4.267-1.836-4.267-4.183v-6.637c0-2.368,1.92-4.183,4.267-4.183h0.192
	c2.368,0,4.267,1.813,4.267,4.183v6.616C36.793,48.229,34.895,50.062,32.527,50.062L32.527,50.062z M34.319,39.244
	c0-1.001-0.789-1.729-1.792-1.729h-0.192c-1.002,0-1.791,0.746-1.791,1.729v6.615c0,1.002,0.811,1.75,1.791,1.75h0.192
	c1.003,0,1.792-0.748,1.792-1.729V39.244L34.319,39.244z"/>
<path fill="#003468" d="M43.792,50.062H43.6c-2.348,0-4.268-1.92-4.268-4.269V36.3c0-0.832,0.619-1.237,1.238-1.237
	s1.237,0.405,1.237,1.237v9.494c0,0.981,0.812,1.815,1.792,1.815h0.191c1.004,0,1.814-0.812,1.814-1.815V36.3
	c0-0.832,0.618-1.237,1.238-1.237c0.619,0,1.236,0.405,1.236,1.237v9.494C48.081,48.145,46.163,50.062,43.792,50.062L43.792,50.062z
	"/>
<path fill="#003468" d="M56.829,37.645h-1.705v11.183c0,0.832-0.621,1.235-1.24,1.235c-0.617,0-1.235-0.403-1.235-1.235V37.645
	H50.94c-0.811,0-1.236-0.619-1.236-1.235c0-0.599,0.426-1.218,1.236-1.218h5.889c0.832,0,1.238,0.619,1.238,1.218
	C58.066,37.025,57.661,37.645,56.829,37.645L56.829,37.645z"/>
<path fill="#003468" d="M68.352,49.934h-5.549c-0.789,0-1.26-0.744-1.26-1.472c0-0.276,0.043-0.532,0.193-0.769l4.844-7.809
	c0.254-0.427,0.254-0.662,0.254-0.98v-0.17c0-0.644-0.553-1.219-1.275-1.219h-0.066c-0.705,0-1.236,0.555-1.236,1.219v0.232
	c0,0.811-0.619,1.217-1.238,1.217c-0.617,0-1.238-0.406-1.238-1.217v-0.32c0-2.069,1.686-3.584,3.715-3.584h0.064
	c2.004,0,3.754,1.494,3.754,3.584l-0.021,0.234c0,0.811-0.299,1.473-0.748,2.221l-3.902,6.381h3.713
	c0.832,0,1.234,0.617,1.234,1.215C69.586,49.314,69.184,49.934,68.352,49.934L68.352,49.934z"/>
<path fill="#003468" d="M78.102,47.014h-0.471v1.812c0,0.832-0.617,1.236-1.236,1.236s-1.236-0.404-1.236-1.236v-1.812h-3.352
	c-0.855,0-1.389-0.471-1.389-1.305c0-0.211,0.043-0.488,0.129-0.682l3.99-9.217c0.234-0.535,0.662-0.748,1.088-0.748
	c0.641,0,1.279,0.49,1.279,1.193c0,0.174-0.021,0.342-0.105,0.535l-3.521,7.768h1.881v-1.24c0-0.811,0.617-1.235,1.236-1.235
	s1.236,0.403,1.236,1.235v1.24h0.471c0.832,0,1.234,0.598,1.234,1.215C79.336,46.393,78.934,47.014,78.102,47.014L78.102,47.014z"/>
<rect y="27" fill="#FFFFFF" width="116" height="2"/>
<path fill="#FFFFFF" d="M16.573,21c-0.48,0-0.98-0.256-1.156-0.876l-0.807-2.582h-4.316l-0.807,2.582C9.29,20.744,8.79,21,8.309,21
	C7.655,21,7,20.53,7,19.804c0-0.128,0-0.257,0.066-0.405l3.99-12.353C11.362,6.085,11.907,6,12.452,6
	c0.523,0,1.068,0.085,1.396,1.046l3.967,12.353c0.045,0.148,0.066,0.277,0.066,0.405C17.881,20.53,17.227,21,16.573,21L16.573,21z
	 M12.452,10.588l-1.373,4.501h2.746L12.452,10.588L12.452,10.588z"/>
<path fill="#FFFFFF" d="M24.229,21h-0.195c-2.398,0-4.361-1.922-4.361-4.269V7.238C19.672,6.406,20.305,6,20.938,6
	c0.631,0,1.264,0.406,1.264,1.238v9.494c0,0.981,0.828,1.814,1.832,1.814h0.195c1.025,0,1.854-0.811,1.854-1.814V7.238
	C26.083,6.406,26.715,6,27.346,6c0.633,0,1.266,0.406,1.266,1.238v9.494C28.612,19.078,26.649,21,24.229,21L24.229,21z"/>
<path fill="#FFFFFF" d="M37.749,8.582h-1.744V19.76c0,0.834-0.633,1.24-1.266,1.24s-1.266-0.405-1.266-1.24V8.582h-1.742
	c-0.83,0-1.266-0.619-1.266-1.237c0-0.598,0.436-1.216,1.266-1.216h6.018c0.85,0,1.264,0.618,1.264,1.216
	C39.012,7.963,38.598,8.582,37.749,8.582L37.749,8.582z"/>
<path fill="#FFFFFF" d="M45.083,21h-0.195c-2.4,0-4.361-1.836-4.361-4.183v-6.635C40.526,7.814,42.487,6,44.887,6h0.195
	c2.42,0,4.359,1.814,4.359,4.182v6.614C49.442,19.164,47.502,21,45.083,21L45.083,21z M46.913,10.182
	c0-1.003-0.805-1.728-1.83-1.728h-0.195c-1.025,0-1.832,0.746-1.832,1.728v6.614c0,1.003,0.828,1.75,1.832,1.75h0.195
	c1.025,0,1.83-0.747,1.83-1.729V10.182L46.913,10.182z"/>
</svg>
